<mxfile host="app.diagrams.net" agent="Mozilla/5.0 (Windows NT 10.0; Win64; x64) AppleWebKit/537.36 (KHTML, like Gecko) Chrome/131.0.0.0 Safari/537.36" version="24.8.6">
  <diagram name="Page-1" id="gPaEYSb7tqzo1BokyKMq">
    <mxGraphModel dx="1050" dy="522" grid="1" gridSize="10" guides="1" tooltips="1" connect="1" arrows="1" fold="1" page="1" pageScale="1" pageWidth="827" pageHeight="1169" math="0" shadow="0">
      <root>
        <mxCell id="0" />
        <mxCell id="1" parent="0" />
        <mxCell id="wnT42UB1pDzB1ioGxhvd-34" style="edgeStyle=orthogonalEdgeStyle;rounded=0;orthogonalLoop=1;jettySize=auto;html=1;exitX=0.5;exitY=1;exitDx=0;exitDy=0;entryX=0.5;entryY=0;entryDx=0;entryDy=0;dashed=1;" parent="1" source="wnT42UB1pDzB1ioGxhvd-35" target="wnT42UB1pDzB1ioGxhvd-39" edge="1">
          <mxGeometry relative="1" as="geometry" />
        </mxCell>
        <mxCell id="wnT42UB1pDzB1ioGxhvd-35" value="Usuario" style="swimlane;fontStyle=0;align=center;verticalAlign=top;childLayout=stackLayout;horizontal=1;startSize=26;horizontalStack=0;resizeParent=1;resizeLast=0;collapsible=1;marginBottom=0;rounded=0;shadow=0;strokeWidth=1;" parent="1" vertex="1">
          <mxGeometry x="280" y="250" width="190" height="380" as="geometry">
            <mxRectangle x="340" y="380" width="170" height="26" as="alternateBounds" />
          </mxGeometry>
        </mxCell>
        <mxCell id="wnT42UB1pDzB1ioGxhvd-36" value="+ nome: string&#xa;+ cpf: string&#xa;+ foto: string&#xa;+ email: string&#xa;+ senha: string&#xa;+ telefone: string&#xa;+ sexo: string&#xa;+ rua: string&#xa;+ bairro: string&#xa;+ cidades: string&#xa;+ estado: string&#xa;+ cep: string&#xa;+ nascimento: date&#xa;+ pontuacao: int&#xa;+ numero_endereco: string&#xa;+ complemento_endereco: string" style="text;align=left;verticalAlign=top;spacingLeft=4;spacingRight=4;overflow=hidden;rotatable=0;points=[[0,0.5],[1,0.5]];portConstraint=eastwest;" parent="wnT42UB1pDzB1ioGxhvd-35" vertex="1">
          <mxGeometry y="26" width="190" height="234" as="geometry" />
        </mxCell>
        <mxCell id="wnT42UB1pDzB1ioGxhvd-37" value="" style="line;html=1;strokeWidth=1;align=left;verticalAlign=middle;spacingTop=-1;spacingLeft=3;spacingRight=3;rotatable=0;labelPosition=right;points=[];portConstraint=eastwest;" parent="wnT42UB1pDzB1ioGxhvd-35" vertex="1">
          <mxGeometry y="260" width="190" height="10" as="geometry" />
        </mxCell>
        <mxCell id="wnT42UB1pDzB1ioGxhvd-38" value="+ criar():&#xa;+ editar(): &#xa;+ gravar():&#xa;+ deletar(): &#xa;+ recuperarSenha():&#xa;+ atualizarPontos():&#xa;+ redefinirSenha():" style="text;align=left;verticalAlign=top;spacingLeft=4;spacingRight=4;overflow=hidden;rotatable=0;points=[[0,0.5],[1,0.5]];portConstraint=eastwest;" parent="wnT42UB1pDzB1ioGxhvd-35" vertex="1">
          <mxGeometry y="270" width="190" height="110" as="geometry" />
        </mxCell>
        <mxCell id="wnT42UB1pDzB1ioGxhvd-39" value="«DAO»&#xa;UsuarioDAO&#xa;" style="swimlane;fontStyle=0;align=center;verticalAlign=top;childLayout=stackLayout;horizontal=1;startSize=35;horizontalStack=0;resizeParent=1;resizeLast=0;collapsible=1;marginBottom=0;rounded=0;shadow=0;strokeWidth=1;" parent="1" vertex="1">
          <mxGeometry x="295" y="680" width="160" height="70" as="geometry">
            <mxRectangle x="340" y="380" width="170" height="26" as="alternateBounds" />
          </mxGeometry>
        </mxCell>
        <mxCell id="wnT42UB1pDzB1ioGxhvd-40" value="" style="line;html=1;strokeWidth=1;align=left;verticalAlign=middle;spacingTop=-1;spacingLeft=3;spacingRight=3;rotatable=0;labelPosition=right;points=[];portConstraint=eastwest;" parent="wnT42UB1pDzB1ioGxhvd-39" vertex="1">
          <mxGeometry y="35" width="160" height="8" as="geometry" />
        </mxCell>
        <mxCell id="wnT42UB1pDzB1ioGxhvd-41" value="+ criar():" style="text;align=left;verticalAlign=top;spacingLeft=4;spacingRight=4;overflow=hidden;rotatable=0;points=[[0,0.5],[1,0.5]];portConstraint=eastwest;" parent="wnT42UB1pDzB1ioGxhvd-39" vertex="1">
          <mxGeometry y="43" width="160" height="27" as="geometry" />
        </mxCell>
        <mxCell id="wnT42UB1pDzB1ioGxhvd-42" style="edgeStyle=orthogonalEdgeStyle;rounded=0;orthogonalLoop=1;jettySize=auto;html=1;entryX=0.5;entryY=0;entryDx=0;entryDy=0;dashed=1;" parent="1" source="wnT42UB1pDzB1ioGxhvd-43" target="wnT42UB1pDzB1ioGxhvd-45" edge="1">
          <mxGeometry relative="1" as="geometry">
            <mxPoint x="430" y="115" as="targetPoint" />
          </mxGeometry>
        </mxCell>
        <mxCell id="wnT42UB1pDzB1ioGxhvd-43" value="«View»&lt;br&gt;&lt;b&gt;TelaCriarUsuario&lt;br&gt;&lt;/b&gt;" style="html=1;whiteSpace=wrap;" parent="1" vertex="1">
          <mxGeometry x="307.5" y="50" width="135" height="50" as="geometry" />
        </mxCell>
        <mxCell id="wnT42UB1pDzB1ioGxhvd-44" style="edgeStyle=orthogonalEdgeStyle;rounded=0;orthogonalLoop=1;jettySize=auto;html=1;exitX=0.5;exitY=1;exitDx=0;exitDy=0;dashed=1;entryX=0.5;entryY=0;entryDx=0;entryDy=0;" parent="1" source="wnT42UB1pDzB1ioGxhvd-45" target="wnT42UB1pDzB1ioGxhvd-35" edge="1">
          <mxGeometry relative="1" as="geometry">
            <mxPoint x="402.5" y="140" as="sourcePoint" />
            <mxPoint x="360" y="290" as="targetPoint" />
          </mxGeometry>
        </mxCell>
        <mxCell id="wnT42UB1pDzB1ioGxhvd-45" value="«Control»&#xa;UsuarioCtr" style="swimlane;fontStyle=0;align=center;verticalAlign=top;childLayout=stackLayout;horizontal=1;startSize=40;horizontalStack=0;resizeParent=1;resizeLast=0;collapsible=1;marginBottom=0;rounded=0;shadow=0;strokeWidth=1;" parent="1" vertex="1">
          <mxGeometry x="295" y="140" width="160" height="80" as="geometry">
            <mxRectangle x="340" y="380" width="170" height="26" as="alternateBounds" />
          </mxGeometry>
        </mxCell>
        <mxCell id="wnT42UB1pDzB1ioGxhvd-46" value="" style="line;html=1;strokeWidth=1;align=left;verticalAlign=middle;spacingTop=-1;spacingLeft=3;spacingRight=3;rotatable=0;labelPosition=right;points=[];portConstraint=eastwest;" parent="wnT42UB1pDzB1ioGxhvd-45" vertex="1">
          <mxGeometry y="40" width="160" height="10" as="geometry" />
        </mxCell>
        <mxCell id="wnT42UB1pDzB1ioGxhvd-47" value="+ criar():&#xa;" style="text;align=left;verticalAlign=top;spacingLeft=4;spacingRight=4;overflow=hidden;rotatable=0;points=[[0,0.5],[1,0.5]];portConstraint=eastwest;" parent="wnT42UB1pDzB1ioGxhvd-45" vertex="1">
          <mxGeometry y="50" width="160" height="30" as="geometry" />
        </mxCell>
        <mxCell id="OyNLOy7hp4TUTQ1GsXzQ-1" value="«Control»&#xa;LocalizacaoCtr" style="swimlane;fontStyle=0;align=center;verticalAlign=top;childLayout=stackLayout;horizontal=1;startSize=40;horizontalStack=0;resizeParent=1;resizeLast=0;collapsible=1;marginBottom=0;rounded=0;shadow=0;strokeWidth=1;" vertex="1" parent="1">
          <mxGeometry x="530" y="135" width="160" height="90" as="geometry">
            <mxRectangle x="340" y="380" width="170" height="26" as="alternateBounds" />
          </mxGeometry>
        </mxCell>
        <mxCell id="OyNLOy7hp4TUTQ1GsXzQ-2" value="" style="line;html=1;strokeWidth=1;align=left;verticalAlign=middle;spacingTop=-1;spacingLeft=3;spacingRight=3;rotatable=0;labelPosition=right;points=[];portConstraint=eastwest;" vertex="1" parent="OyNLOy7hp4TUTQ1GsXzQ-1">
          <mxGeometry y="40" width="160" height="10" as="geometry" />
        </mxCell>
        <mxCell id="OyNLOy7hp4TUTQ1GsXzQ-3" value="Consultar CEP&#xa;Seleciona Localiação" style="text;align=left;verticalAlign=top;spacingLeft=4;spacingRight=4;overflow=hidden;rotatable=0;points=[[0,0.5],[1,0.5]];portConstraint=eastwest;" vertex="1" parent="OyNLOy7hp4TUTQ1GsXzQ-1">
          <mxGeometry y="50" width="160" height="40" as="geometry" />
        </mxCell>
        <mxCell id="OyNLOy7hp4TUTQ1GsXzQ-4" value="Localizacao" style="swimlane;fontStyle=0;align=center;verticalAlign=top;childLayout=stackLayout;horizontal=1;startSize=35;horizontalStack=0;resizeParent=1;resizeLast=0;collapsible=1;marginBottom=0;rounded=0;shadow=0;strokeWidth=1;" vertex="1" parent="1">
          <mxGeometry x="530" y="250" width="160" height="90" as="geometry">
            <mxRectangle x="340" y="380" width="170" height="26" as="alternateBounds" />
          </mxGeometry>
        </mxCell>
        <mxCell id="OyNLOy7hp4TUTQ1GsXzQ-5" value="" style="line;html=1;strokeWidth=1;align=left;verticalAlign=middle;spacingTop=-1;spacingLeft=3;spacingRight=3;rotatable=0;labelPosition=right;points=[];portConstraint=eastwest;" vertex="1" parent="OyNLOy7hp4TUTQ1GsXzQ-4">
          <mxGeometry y="35" width="160" height="8" as="geometry" />
        </mxCell>
        <mxCell id="OyNLOy7hp4TUTQ1GsXzQ-6" value="Consultar CEP&#xa;Seleciona Localiação" style="text;align=left;verticalAlign=top;spacingLeft=4;spacingRight=4;overflow=hidden;rotatable=0;points=[[0,0.5],[1,0.5]];portConstraint=eastwest;" vertex="1" parent="OyNLOy7hp4TUTQ1GsXzQ-4">
          <mxGeometry y="43" width="160" height="47" as="geometry" />
        </mxCell>
        <mxCell id="OyNLOy7hp4TUTQ1GsXzQ-7" style="edgeStyle=orthogonalEdgeStyle;rounded=0;orthogonalLoop=1;jettySize=auto;html=1;exitX=1;exitY=0.5;exitDx=0;exitDy=0;dashed=1;entryX=0;entryY=0.5;entryDx=0;entryDy=0;" edge="1" parent="1" source="wnT42UB1pDzB1ioGxhvd-45" target="OyNLOy7hp4TUTQ1GsXzQ-1">
          <mxGeometry relative="1" as="geometry">
            <mxPoint x="385" y="230" as="sourcePoint" />
            <mxPoint x="385" y="260" as="targetPoint" />
          </mxGeometry>
        </mxCell>
        <mxCell id="OyNLOy7hp4TUTQ1GsXzQ-8" style="edgeStyle=orthogonalEdgeStyle;rounded=0;orthogonalLoop=1;jettySize=auto;html=1;dashed=1;entryX=0.5;entryY=0;entryDx=0;entryDy=0;" edge="1" parent="1" source="OyNLOy7hp4TUTQ1GsXzQ-1" target="OyNLOy7hp4TUTQ1GsXzQ-4">
          <mxGeometry relative="1" as="geometry">
            <mxPoint x="385" y="230" as="sourcePoint" />
            <mxPoint x="385" y="260" as="targetPoint" />
          </mxGeometry>
        </mxCell>
      </root>
    </mxGraphModel>
  </diagram>
</mxfile>
